<svg width="164" height="50" viewBox="0 0 164 50" fill="none" xmlns="http://www.w3.org/2000/svg">
<g clip-path="url(#clip0_4555_542)">
<path fill-rule="evenodd" clip-rule="evenodd" d="M25.0039 50C38.811 50 50.0038 38.8071 50.0038 25C50.0038 11.1929 38.811 0 25.0039 0C11.1968 0 0.00390625 11.1929 0.00390625 25C0.00390625 38.8071 11.1968 50 25.0039 50ZM16.4336 17.5001C16.4336 12.7663 20.2711 8.92871 25.005 8.92871C29.7389 8.92871 33.5764 12.7663 33.5764 17.5001V30.4705C33.5764 32.4121 32.0024 33.9861 30.0608 33.9861H19.9492C18.0076 33.9861 16.4336 32.4121 16.4336 30.4705V17.5001ZM22.6326 38.6926L22.6326 34.8123C24.3927 34.8214 26.0283 35.3542 27.3901 36.2621V38.6926C27.3901 40.0064 26.3251 41.0714 25.0113 41.0714C23.6976 41.0714 22.6326 40.0064 22.6326 38.6926Z" fill="white"/>
</g>
<path d="M64.92 35.9691V28.1158H72.5901V23.1043H64.92V19.0096H74.0874V14.0287H59.1445V35.9691H64.92Z" fill="white"/>
<path d="M89.6498 35.9691H95.8836L87.8469 14.0287H81.5214L73.3929 35.9691H79.2295L80.6046 31.9049H88.3052L89.6498 35.9691ZM82.1325 27.3518L84.516 20.3847L86.8079 27.3518H82.1325Z" fill="white"/>
<path d="M112.234 35.9691H117.795V14.0287H112.509V26.7101L104.411 14.0287H98.2075V35.9691H103.494V22.2793L112.234 35.9691Z" fill="white"/>
<path d="M143.319 26.5879H137.207C136.718 29.3686 134.671 31.2632 132.012 31.2632C128.773 31.2632 126.726 28.7269 126.726 24.9683C126.726 21.2403 128.773 18.7346 132.012 18.7346C134.701 18.7346 136.749 20.6291 137.207 23.3793H143.319C142.616 17.5734 137.971 13.5703 131.951 13.5703C125.717 13.5703 120.797 18.5512 120.797 24.9683C120.797 31.416 125.717 36.4275 131.951 36.4275C137.971 36.4275 142.585 32.455 143.319 26.5879Z" fill="white"/>
<path d="M155.829 27.7185L163.56 14.0287H157.754L153.14 22.432L148.617 14.0287H142.384L150.054 27.7185V35.9691H155.829V27.7185Z" fill="white"/>
<defs>
<clipPath id="clip0_4555_542">
<rect width="49.9999" height="50" rx="25" fill="white"/>
</clipPath>
</defs>
</svg>
